<?xml version="1.0" standalone="no"?>
<!DOCTYPE svg PUBLIC "-//W3C//DTD SVG 20010904//EN"
 "http://www.w3.org/TR/2001/REC-SVG-20010904/DTD/svg10.dtd">
<svg version="1.0" xmlns="http://www.w3.org/2000/svg"
 width="640.000000pt" height="640.000000pt" viewBox="0 0 640.000000 640.000000"
 preserveAspectRatio="xMidYMid meet">

<g transform="translate(0.000000,640.000000) scale(0.100000,-0.100000)"
fill="#000000" stroke="none">
<path d="M0 3200 l0 -3200 3200 0 3200 0 0 3200 0 3200 -3200 0 -3200 0 0
-3200z m3618 3011 c196 -42 369 -110 534 -212 l99 -62 29 22 c18 12 44 21 66
21 38 0 43 -5 127 -105 23 -27 27 -28 50 -16 33 18 57 8 91 -39 16 -21 34 -41
41 -43 10 -5 44 20 194 136 30 23 74 57 98 75 32 24 43 39 43 59 0 39 36 108
65 123 37 20 109 15 143 -9 66 -46 69 -142 7 -199 -32 -30 -42 -33 -88 -32
-29 1 -57 1 -64 1 -6 -1 -47 -29 -91 -63 -43 -35 -114 -90 -156 -122 -42 -33
-76 -63 -76 -68 0 -5 16 -30 35 -55 38 -50 43 -74 20 -93 -23 -19 -18 -36 25
-95 52 -70 54 -114 9 -161 l-31 -32 46 -124 c83 -222 118 -373 165 -713 28
-202 46 -554 31 -599 -15 -46 -78 -102 -154 -136 -76 -35 -249 -82 -381 -105
-177 -30 -205 -36 -205 -45 0 -4 33 -13 73 -19 198 -30 277 -54 321 -99 74
-75 97 -109 129 -187 81 -193 117 -419 117 -742 0 -282 -29 -600 -70 -768 -5
-22 -19 -83 -31 -135 -27 -119 -55 -217 -86 -300 -14 -36 -34 -90 -45 -120
-100 -268 -278 -498 -448 -579 l-75 -36 -905 0 -905 0 -68 32 c-205 97 -354
302 -490 673 -90 246 -148 517 -183 845 -21 204 -15 646 10 800 38 228 105
398 195 493 45 46 58 54 148 81 54 16 132 32 175 36 42 4 84 12 94 20 21 15
23 14 -141 40 -279 45 -491 119 -563 198 -37 39 -42 86 -32 282 15 275 26 367
76 622 32 163 113 432 155 515 26 51 24 59 -16 101 -49 51 -47 84 10 166 l45
65 -20 21 c-27 29 -26 40 15 96 19 27 35 53 35 58 0 10 -279 229 -315 248 -11
6 -35 8 -52 6 -107 -17 -184 85 -138 181 44 93 190 86 230 -10 8 -20 15 -47
15 -59 0 -17 21 -40 78 -84 42 -33 115 -90 160 -126 46 -36 88 -65 93 -65 4 0
23 20 41 45 38 52 61 62 95 44 23 -12 27 -11 50 16 73 88 93 105 126 105 18 0
49 -11 69 -25 20 -14 42 -25 47 -25 6 0 41 19 78 43 224 142 387 204 693 261
14 2 117 3 230 2 165 -2 225 -7 308 -25z m-3023 -821 c40 -25 75 -74 116 -165
33 -73 39 -90 109 -295 165 -486 310 -807 533 -1175 133 -221 221 -386 248
-467 74 -227 -144 -242 -440 -30 -389 277 -694 755 -799 1252 -38 181 -44 228
-43 389 0 250 42 418 121 485 40 33 107 36 155 6z m4568 -2025 c156 -74 376
-381 498 -694 38 -97 93 -306 116 -441 25 -150 25 -515 0 -655 -56 -310 -149
-535 -268 -654 -43 -43 -82 -59 -127 -54 -118 13 -162 144 -162 485 0 251 -19
599 -41 778 -12 91 -48 296 -81 455 -33 160 -70 342 -83 405 -49 235 -44 342
18 381 36 22 75 21 130 -6z"/>
<path d="M2245 5042 c-90 -28 -124 -45 -193 -97 -177 -134 -288 -383 -253
-571 34 -184 146 -285 356 -323 108 -19 367 -50 505 -61 74 -6 146 -13 159
-16 59 -13 840 -5 1011 11 231 21 542 61 613 80 129 33 212 97 264 202 24 51
28 72 31 165 3 79 -1 122 -13 165 -81 279 -333 478 -585 460 -41 -3 -165 -15
-275 -28 -175 -19 -250 -22 -595 -22 -342 0 -421 3 -590 23 -278 31 -362 34
-435 12z m342 -348 c58 -20 86 -44 111 -98 16 -34 18 -51 12 -99 -14 -102 -80
-158 -184 -159 -63 -1 -106 20 -143 69 -25 33 -28 45 -28 113 0 68 3 80 28
113 30 40 55 56 102 68 45 11 50 10 102 -7z m1474 5 c89 -27 148 -115 135
-203 -24 -156 -211 -218 -318 -105 -50 52 -66 106 -49 167 21 78 66 126 136
143 44 10 54 10 96 -2z"/>
<path d="M2828 3839 c-35 -20 -41 -47 -18 -85 66 -105 278 -173 505 -160 178
10 298 51 383 130 49 46 56 85 20 110 -42 29 -81 20 -143 -32 -79 -68 -127
-84 -268 -90 -123 -5 -217 7 -272 35 -16 9 -51 35 -77 59 -49 46 -91 56 -130
33z"/>
<path d="M2273 2879 c-209 -26 -333 -297 -333 -728 0 -452 138 -901 330 -1075
79 -71 15 -67 1014 -64 l901 3 41 27 c223 145 394 694 370 1190 -8 161 -25
259 -65 374 -49 139 -127 235 -214 263 -36 11 -1956 20 -2044 10z m1192 -178
c17 -4 -28 -5 -100 -3 -71 2 -134 5 -140 7 -19 7 210 3 240 -4z m-75 -27 c0
-2 -7 -4 -15 -4 -8 0 -15 4 -15 10 0 5 7 7 15 4 8 -4 15 -8 15 -10z m234 -1
c17 -3 35 -11 39 -17 6 -8 10 -8 13 0 5 11 64 6 64 -5 0 -4 17 -8 38 -8 42 -1
179 -22 202 -30 16 -6 30 -8 68 -11 35 -3 26 -18 -35 -64 -32 -23 -73 -56 -91
-73 -19 -16 -37 -30 -40 -30 -4 0 -13 -4 -21 -9 -15 -10 -90 58 -77 71 4 4 12
0 17 -10 6 -9 15 -17 21 -17 6 0 3 9 -8 21 -10 11 -26 18 -36 16 -11 -3 -37
10 -65 32 -51 39 -76 52 -134 72 -28 9 -35 16 -31 31 3 12 -1 18 -12 18 -9 0
-16 -6 -16 -14 0 -9 -7 -12 -20 -9 -11 3 -20 10 -20 15 0 6 -13 8 -32 4 -29
-5 -30 -4 -13 6 25 15 102 27 134 21 13 -2 37 -7 55 -10z m-313 -276 c55 -36
79 -96 79 -194 0 -78 -3 -88 -39 -156 -35 -63 -43 -72 -68 -72 l-28 0 -5 146
c-4 103 -9 151 -19 163 -10 12 -31 16 -92 16 -107 0 -109 -4 -109 -178 l0
-133 -67 3 -68 3 1 156 c0 178 9 207 80 246 35 20 53 23 170 23 119 0 134 -2
165 -23z m436 -135 c10 -6 12 -91 10 -357 l-2 -350 -67 -3 -68 -3 0 151 0 151
-112 -3 -112 -3 0 -145 -1 -145 -67 -3 -68 -3 0 138 c0 122 2 142 21 173 45
75 47 76 158 70 56 -3 101 -2 101 3 0 4 -8 7 -19 7 -10 0 -34 7 -52 15 -33 14
-31 14 59 15 l92 0 0 143 c0 79 3 147 7 150 9 10 105 8 120 -1z m-331 -192
c-9 -22 -16 -56 -16 -75 0 -30 -3 -35 -24 -35 -38 0 -38 13 -2 72 18 30 36 63
40 73 3 10 9 15 12 12 4 -3 -1 -24 -10 -47z m-392 -126 c3 -9 6 -33 6 -54 0
-54 26 -70 112 -70 38 0 68 -3 68 -6 0 -8 -56 -110 -75 -138 l-15 -20 0 20 c0
18 -8 22 -62 28 -110 11 -158 67 -158 186 l0 70 59 0 c44 0 60 -4 65 -16z"/>
</g>
</svg>
